<svg id="Layer_1" enable-background="new 0 0 512 512" height="512" viewBox="0 0 512 512" width="512" xmlns="http://www.w3.org/2000/svg"><g><path d="m256 125.872c7.72 0 14-6.28 14-14-.031-5.237-7.316-18.735-14-29.02-6.684 10.284-13.969 23.783-14 29.021 0 7.719 6.28 13.999 14 13.999z"/><path d="m256 200c55.078 0 100-44.922 100-100s-44.922-100-100-100-100 44.922-100 100 44.922 100 100 100zm-28.353-128.373c3.502-5.686 7.315-11.254 10.735-15.681 4.068-5.265 9.131-11.817 17.617-11.817s13.549 6.553 17.617 11.817c3.42 4.427 7.233 9.995 10.735 15.681 10.384 16.855 15.649 30.395 15.649 40.245 0 24.262-19.738 44-44 44s-44-19.738-44-44c0-9.85 5.265-23.39 15.647-40.245z"/><path d="m380.474 137.515h116.526c8.284 0 15-6.716 15-15 0-41.355-33.645-75-74.999-75h-62.079c7.116 16.061 11.079 33.818 11.079 52.485 0 13.039-1.938 25.631-5.527 37.515z"/><path d="m15 137.516h116.526c-3.588-11.884-5.526-24.477-5.526-37.516 0-18.668 3.963-36.425 11.079-52.485h-62.079c-41.355 0-75 33.646-75 75.001 0 3.979 1.581 7.794 4.394 10.606 2.813 2.814 6.628 4.394 10.606 4.394z"/><path d="m271 410h53v102h-53z"/><path d="m30 306h452v-138.485h-114.944c-22.845 37.439-64.08 62.485-111.056 62.485s-88.21-25.046-111.055-62.485h-114.945z"/><path d="m497 482h-15v-146h-452v146h-15c-8.284 0-15 6.716-15 15s6.716 15 15 15h143v-117c0-8.284 6.716-15 15-15h166c8.284 0 15 6.716 15 15v117h143c8.284 0 15-6.716 15-15s-6.716-15-15-15z"/><path d="m188 410h53v102h-53z"/></g></svg>